# ProBuilder 5.2.2
# https://unity3d.com/unity/features/worldbuilding/probuilder
# 2/23/2024 10:17:21 PM

mtllib ./Internally_Visible_Cone.mtl
o Internally Visible Cone

g Internally Visible Cone
v -0.5 0 0
v -0.4045085 0 0.2938926
v 0 2.573618 0
v 0 0 0
v -0.1545085 0 0.4755282
v 0.1545085 0 0.4755282
v 0.4045085 0 0.2938926
v 0.5 0 -5.960464E-08
v 0.4045085 0 -0.2938926
v 0.1545085 0 -0.4755282
v -0.1545086 0 -0.4755282
v -0.4045085 0 -0.2938927

vt 0 0
vt 0.6180339 0
vt 0.309017 2.743723
vt 0.5 0
vt 0.4045085 0.2938926
vt 0.1545085 0.4755282
vt -0.1545085 0.4755282
vt -0.4045085 0.2938926
vt -0.5 -5.960464E-08
vt -0.4045085 -0.2938926
vt -0.1545085 -0.4755282
vt 0.1545086 -0.4755282
vt 0.4045085 -0.2938927

vn 0.9352261 -0.1816948 -0.3038735
vn 0 1 0
vn 0.5780016 -0.1816948 -0.7955509
vn 0 -0.1816948 -0.983355
vn -0.5780014 -0.1816948 -0.795551
vn -0.9352262 -0.1816948 -0.3038732
vn -0.9352261 -0.1816948 0.3038734
vn -0.5780016 -0.1816948 0.7955508
vn 0 -0.1816948 0.983355
vn 0.5780016 -0.1816949 0.7955508
vn 0.9352261 -0.1816948 0.3038734

usemtl Pulse_Weapon
f 3/3/1 2/2/1 1/1/1
f 1/4/2 2/5/2 4/1/2
f 3/3/3 5/2/3 2/1/3
f 2/5/2 5/6/2 4/1/2
f 3/3/4 6/2/4 5/1/4
f 5/6/2 6/7/2 4/1/2
f 3/3/5 7/2/5 6/1/5
f 6/7/2 7/8/2 4/1/2
f 3/3/6 8/2/6 7/1/6
f 7/8/2 8/9/2 4/1/2
f 3/3/7 9/2/7 8/1/7
f 8/9/2 9/10/2 4/1/2
f 3/3/8 10/2/8 9/1/8
f 9/10/2 10/11/2 4/1/2
f 3/3/9 11/2/9 10/1/9
f 10/11/2 11/12/2 4/1/2
f 3/3/10 12/2/10 11/1/10
f 11/12/2 12/13/2 4/1/2
f 3/3/11 1/2/11 12/1/11
f 12/13/2 1/4/2 4/1/2

